# xmcd
#
# Track frame offsets:
#	150
#	22957
#	39401
#	53443
#	72515
#	90075
#	100799
#	115437
#	129827
#	146034
#	162722
#	176151
#	187723
#	210573
#	227126
#
# Disc length: 3238 seconds
#
# Revision: 1
# Processed by: cddbd v1.5.2PL0 Copyright (c) Steve Scherf et al.
# Submitted via: audiograbber 1.83.01
#
DISCID=c20ca40f
DTITLE=Daþâdi - Country mûzikas izlase #1
DYEAR=2002
DGENRE=Country
TTITLE0=Dakota - Kurtizâòu ugunskurs
TTITLE1=Sestâ jûdze - Promejot
TTITLE2=Hardijs Madzulis un Lorija Vuda - Ðonakt
TTITLE3=Juke Box - Tevi vien
TTITLE4=Emburgas zçni - To saku no sirds
TTITLE5=Brâïi Ziemeïi - Zîle rokâ
TTITLE6=Silvija Silava - Ðai dejâ
TTITLE7=Juke Box - Lûk, mana sirds
TTITLE8=Klaidonis - Atmiòas no perona
TTITLE9=Lustîgais Blûmîzers - Bet, ja zvaigzne krît
TTITLE10=Klîstoðais holandietis - Man kâjas uz galda
TTITLE11=Sestâ jûdze - Kâ lai
TTITLE12=Dakota - Fotogrâfija
TTITLE13=Klaidonis - Kamîna ogles
TTITLE14=Èikâgas piecîði - Latvieðu kovbojam
EXTD=
EXTT0=Autors Edvîns Zariòð
EXTT1=Autors Agris Gedroviès - Marika Sviíe
EXTT2=Autors Hardijs Madzulis - Aigars Jirgens
EXTT3=Trad. amerikâòu dziesma
EXTT4=Autors Aldis Rullis - Elita Runga-Íeizare
EXTT5=Autors Saulceris Ziemelis - Mâris Melgalvs
EXTT6=Autors Silvija Silava
EXTT7=Trad. amerikâòu dziesma
EXTT8=Autors Mâris Sloka
EXTT9=Autors Mârtiòð Bergmanis
EXTT10=Autors Aldis Ðteinmanis
EXTT11=Autors Agris Gedroviès - Marika Sviíe
EXTT12=Autors Edvîns Zariòð
EXTT13=Autors Mâris Sloka
EXTT14=Autors Alberts Legzdiòð
PLAYORDER=
